<svg xmlns="http://www.w3.org/2000/svg" viewBox="0 0 455.64 552"><defs><style>.cls-1,.cls-3{fill:#d17a22;}.cls-2{fill:#4c061d;}.cls-3{font-size:50.91px;}.cls-3,.cls-4{font-family:ExpletusSans-SemiBoldItalic, Expletus Sans;font-weight:600;font-style:italic;}.cls-4{font-size:19.39px;}</style></defs><g id="Layer_2" data-name="Layer 2"><g id="Layer_1-2" data-name="Layer 1"><path class="cls-1" d="M256.13,195.6c24.73,16.43,34.31,46.13,16.19,71.52h0l-55.93,78.39a5.29,5.29,0,0,1-8.12,0l-55.93-78.39h0c-18.37-25.75-8.26-55.92,17.23-72.21a108,108,0,1,0,86.56.69Z"/><path class="cls-1" d="M256.13,195.6c-11.67-7.76-26.7-12.56-43.8-12.56h0c-16.59,0-31.24,4.52-42.76,11.87a108.33,108.33,0,0,1,86.56.69Z"/><path class="cls-2" d="M210.76,96.88A285.19,285.19,0,0,0,144.82,109a67,67,0,1,0-58,26.14C33.91,167.78,0,218.14,0,274.65c0,72,55.09,134.07,134.39,162.25C100.61,401.15,79.21,348.16,79.21,289,79.21,192.56,136.08,112.49,210.76,96.88Z"/><path class="cls-1" d="M218.37,95.58a285.09,285.09,0,0,1,65.94,12.06,67,67,0,1,1,58,26.14c52.91,32.69,86.82,83.05,86.82,139.56,0,72-55.09,134.07-134.39,162.25,33.78-35.74,55.18-88.74,55.18-147.9C349.92,191.25,293.05,111.18,218.37,95.58Z"/><circle class="cls-2" cx="212.55" cy="246.73" r="48.52"/><path class="cls-2" d="M214.11,373.38c2.85-3.93,5.74-8.63,9.31-12.74,21-24.25,53.76-19.1,66.45,10.52,7.3,17,5.77,33.62-6.79,47.37-9.36,10.25-20.64,18.76-31.12,28-12.8,11.25-25.66,22.44-39.05,34.15.84.15.41.21.24,0-16.65-18.23-36.57-32.71-55.34-48.51A95.93,95.93,0,0,1,142,415.69c-19.12-26.26-3.87-64.65,27.62-70.21,10.94-1.94,20.45,1.68,28.18,9C203.82,360.27,208.77,367.13,214.11,373.38Z"/><text class="cls-3" transform="translate(15.82 519.7)">B.H FOUNDATION</text><text class="cls-4" transform="translate(195 546.32)">Save a child, Save the future</text></g></g></svg>