<svg xmlns="http://www.w3.org/2000/svg" viewBox="0 0 276.06 309.06"><defs><style>.cls-1{font-size:31.96px;}.cls-1,.cls-3{fill:#d17a22;}.cls-1,.cls-2{font-family:ExpletusSans-SemiBoldItalic, Expletus Sans;font-weight:600;font-style:italic;}.cls-2{font-size:15.98px;}.cls-4{fill:#4c061d;}</style></defs><g id="Layer_2" data-name="Layer 2"><g id="Layer_1-2" data-name="Layer 1"><text class="cls-1" transform="translate(0 289.99)">B.H FOUNDATION</text><text class="cls-2" transform="translate(59.48 304.38)">Save a child, Save the future</text><path class="cls-3" d="M179.25,102.8c6.56,10.79,7.06,24.16-1.31,36.1h0l-39.91,57-39.91-57h0c-8.37-11.94-7.88-25.31-1.31-36.1-16,11.77-26.24,30.22-26.24,51,0,35.56,30.2,64.39,67.46,64.39s67.45-28.83,67.45-64.39C205.48,133,195.21,114.57,179.25,102.8Z"/><path class="cls-4" d="M135.91,54.11a159.78,159.78,0,0,0-36.83,6.73A37.41,37.41,0,1,0,66.69,75.45C37.14,93.7,18.2,121.83,18.2,153.38,18.2,193.61,49,228.26,93.25,244c-18.86-20-30.82-49.56-30.82-82.6C62.43,107.54,94.2,62.82,135.91,54.11Z"/><path class="cls-3" d="M140.15,53.38A159.88,159.88,0,0,1,177,60.11a37.41,37.41,0,1,1,32.39,14.61c29.55,18.25,48.49,46.38,48.49,77.93,0,40.23-30.77,74.88-75.06,90.62,18.87-20,30.82-49.56,30.82-82.6C213.62,106.81,181.86,62.09,140.15,53.38Z"/><path class="cls-4" d="M138.13,211.46c1.4-1.94,2.83-4.25,4.59-6.29,10.35-12,26.52-9.41,32.78,5.2,3.6,8.4,2.84,16.58-3.35,23.36-4.62,5.06-10.18,9.25-15.35,13.8-6.32,5.55-12.66,11.07-19.26,16.85.41.07.19.1.11,0-8.21-9-18-16.14-27.3-23.93a47.62,47.62,0,0,1-7.8-8.13c-9.43-13-1.91-31.89,13.63-34.63a15.54,15.54,0,0,1,13.9,4.46C133.05,205,135.49,208.38,138.13,211.46Z"/><circle class="cls-4" cx="138.79" cy="121.63" r="33.01"/></g></g></svg>